<?xml version="1.0" encoding="UTF-8"?>
<svg id="Layer_1" data-name="Layer 1" xmlns="http://www.w3.org/2000/svg" viewBox="0 0 1174.31 388.64">
  <defs>
    <style>
      .cls-1 {
        fill: #fff;
      }
    </style>
  </defs>
  <path class="cls-1" d="m223.22,94.57c-4.35,6.7-8.37,13.22-12.75,19.48-2.36,3.37-5.78,3.62-9.82,2.64-9.98-2.45-19.97-5.37-30.13-6.38-29.26-2.91-54.92,6.13-76.52,25.96-21.11,19.38-33.33,43.54-35.54,72.14-2.3,29.86,6.82,56.53,25.12,80.06,22.57,29.03,52.39,44.01,89,46.75,50.89,3.82,95.32-26.05,115.25-68.05,6.55-13.8,10.08-28.49,10.04-43.9-.04-16.5.04-33-.03-49.49-.03-8.41,2.66-15.64,8.52-21.72,4.16-4.32,8.18-8.77,12.34-13.08,2.9-3.01,4.34-6.33,4.29-10.69-.19-18.33-.16-36.66,0-54.99.03-3.32-.9-4.94-4.08-6.23-15.24-6.16-23.61-21.86-20.91-38.58,2.39-14.82,15.87-27.22,30.83-28.35,17.48-1.32,32.06,7.72,37.3,23.13,5.97,17.57-2,36.06-19.13,43.48-3.7,1.6-4.84,3.53-4.8,7.43.19,19.33.03,38.66.12,57.99.03,5.94-1.58,11.12-5.67,15.52-4.42,4.76-8.66,9.69-13.17,14.36-3.93,4.07-5.61,8.67-5.61,14.39,0,19.32-.04,38.65-.64,57.96-.87,27.98-11.4,52.4-28.76,74.05-8.82,11.01-19.43,20.04-31.19,27.81-1.31.87-2.44,3.46-2.18,5.02,1.21,7.38,2.75,14.72,4.54,21.98,1.17,4.77-.46,7.9-4.71,9.66-12.3,5.08-24.64,10.08-37.03,14.94-4.32,1.7-7.47-.47-9.6-4.11-3.28-5.6-6.54-11.23-9.48-17-1.7-3.34-3.65-4.74-7.7-4.57-9.31.4-18.66-.13-27.98.11-1.83.05-4.37,1.43-5.29,2.97-3.49,5.85-6.28,12.12-9.65,18.05-3.21,5.65-6.49,6.51-12.52,4.09-10.66-4.28-21.33-8.53-32.01-12.75-6.57-2.59-7.78-4.53-6.89-11.68.72-5.77,1.5-11.53,2.33-17.29.42-2.93-.53-4.72-3.09-6.59-8.44-6.17-16.49-12.88-24.85-19.18-1.29-.97-3.63-1.52-5.11-1.07-5.88,1.8-11.6,4.11-17.41,6.16-5.64,1.99-8.17,1.26-11.45-3.69-6.53-9.85-12.9-19.81-19.41-29.68-2.88-4.36-2.83-8.24,1.02-12.09,4.24-4.24,8.09-8.87,12.39-13.04,2.34-2.27,2.66-4.23,1.88-7.43-2.12-8.68-3.42-17.56-5.39-26.29-.38-1.67-2.08-3.76-3.64-4.3-5.65-1.95-11.54-3.16-17.25-4.96-5.82-1.84-7.4-4.64-6.65-10.49,1.37-10.71,2.71-21.43,4.05-32.15,1.07-8.54,3.36-10.57,11.79-10.8,5.66-.15,11.34-.28,16.95-.95,1.67-.2,3.69-1.87,4.59-3.42,4.89-8.46,9.56-17.05,14.09-25.71.64-1.21.7-3.46-.01-4.52-3.52-5.25-7.43-10.23-11.14-15.36-3.87-5.36-3.82-8.24.72-12.75,8.28-8.21,16.76-16.22,25.09-24.37,3.59-3.51,7.09-3.66,11.07-.53,4.97,3.91,10.23,7.46,15.19,11.38,2.56,2.02,4.59,1.97,7.64.67,9-3.83,18.18-7.26,27.45-10.4,3.16-1.07,4.13-2.62,4.23-5.69.21-6.48.6-12.95,1.16-19.41.64-7.41,2.74-9.26,10.1-9.27,11.16-.03,22.33-.06,33.49.03,6.17.05,8.29,2.02,9.27,8.12,1.1,6.89,2.36,13.75,3.27,20.66.44,3.35,2.08,4.64,5.26,5.55,8.29,2.39,16.45,5.27,24.63,8.07,1.36.46,2.54,1.45,4.15,2.4Zm109.93-44.42c8.15-.08,15.47-7.1,15.31-14.69-.18-8.5-7.4-15.37-15.96-15.19-8.14.17-15,7-15.06,15.01-.06,7.91,7.37,14.95,15.71,14.87Z"/>
  <path class="cls-1" d="m155.16,180.9v37.59c19.31-13.13,37.67-25.62,56.84-38.66v36.71h9.86c0-1.94,0-3.72,0-5.5,0-26.99-.06-53.99.14-80.98.02-2.27,1.19-5.44,2.91-6.65,18.09-12.77,36.39-25.22,54.65-37.75.51-.35,1.16-.51,2.41-1.04.13,1.96.33,3.5.33,5.05.02,53.15-.13,106.3.15,159.45.05,9.5-3.96,17.17-8.71,24.5-19.34,29.89-46.64,47.37-82.33,50.7-40.79,3.81-74.05-10.49-99.33-42.79-1.87-2.39-3-5.97-3.07-9.04-.32-14.32-.24-28.66-.01-42.98.03-1.96,1.19-4.66,2.73-5.73,20.08-13.99,40.32-27.74,60.53-41.54.52-.36,1.16-.55,2.91-1.35Zm42.25,86.76v-23.97h-24.68v23.97h24.68Zm30.67-24.13c0,7.53-.08,14.63.1,21.73.02.87,1.45,2.41,2.26,2.43,7.27.19,14.54.11,21.97.11v-24.27h-24.34Zm-111.54.13c0,7.38-.08,14.51.11,21.62.02.86,1.48,2.39,2.3,2.42,7.11.19,14.23.11,21.5.11v-24.15h-23.91Z"/>
  <path class="cls-1" d="m403.59,145.05c3.75-9.73-2.48-13.68-9.93-18.41-12.42-7.88-16.88-20.36-14.37-34.71,2.39-13.63,10.81-22.96,24-26.77,13.69-3.95,26.41-1,35.84,10.18,15.82,18.78,10.3,44.77-11.57,54.75-4.3,1.96-5.58,4.18-5.21,8.59.5,5.96.35,11.98.53,17.97.3,9.69-3.15,17.8-9.88,24.74-11.01,11.35-21.83,22.88-32.76,34.3-4.71,4.92-7.06,10.61-7.01,17.54.16,20.99.17,41.98-.05,62.96-.04,4.2,1.01,6.36,5.06,8.25,14.56,6.79,22.05,22.77,18.58,38.27-3.56,15.92-17.55,27.24-33.81,27.34-15.43.1-29.89-10.95-33.6-25.69-4.32-17.17,4.06-34.33,20.36-40.91,3.45-1.39,4.34-3.28,4.33-6.69-.09-22.49.13-44.97-.05-67.46-.08-9.95,3.49-18.12,10.27-25.14,9.25-9.58,18.22-19.45,27.77-28.73,8.63-8.38,14.39-17.51,11.48-30.41Zm-5.46-46.47c.04,8.21,6.76,15.11,14.79,15.18,7.85.07,15.74-7.54,15.71-15.15-.03-7.72-7.9-15.31-15.71-15.16-8.22.16-14.83,6.92-14.79,15.13Zm-35.18,251.72c8.68.08,15.14-5.98,15.3-14.37.16-8.51-6.86-15.43-15.63-15.39-7.76.03-14.4,6.88-14.43,14.9-.03,8.63,6.08,14.79,14.75,14.87Z"/>
  <path class="cls-1" d="m594.31,162.9c-.79,10.77-4.66,19.16-12.09,25.75-17.6,15.59-48.9,17.18-68,3.4-11.95-8.63-17.77-20.99-19.57-35.19-2.59-20.49-.15-39.83,16.52-54.41,21.06-18.43,59.18-16.76,76.14,7.23,3.25,4.6,4.78,10.49,6.72,15.92.99,2.78.03,4.93-3.63,4.66-1.99-.15-4.01-.14-6,0-5.81.4-11.35.85-12.21-7.39-.21-1.98-2.39-3.96-4.05-5.55-15.84-15.22-45.63-7.15-51.21,14-3.09,11.71-3.04,23.53,2.46,34.64,10.54,21.3,38.25,18.44,48.93,8.35,1.88-1.78,3.98-4.1,4.44-6.46.9-4.64,3.48-5.23,7.41-5,4.45.26,8.93.06,14.15.06Z"/>
  <path class="cls-1" d="m817.71,122.14c.24,2.26.41,3.9.63,5.99.86-.42,1.56-.63,2.13-1.04,11.36-8.27,23.64-9.4,36.34-4,13.14,5.59,19.7,16.37,21.47,30.16,1.37,10.66-.39,20.83-6.02,30.18-10.36,17.23-32.45,22.51-49.58,11.82-1.21-.76-2.44-1.49-4.24-2.59,0,11.61-.19,22.54.1,33.46.11,4.25-1.29,5.32-5.38,5.28-13.91-.14-13.91.01-13.91-13.82,0-29.63,0-59.25.02-88.88,0-2.12.24-4.24.37-6.56h18.07Zm41.69,38.67c-.28-2.89-.35-5.4-.8-7.84-1.76-9.49-8.64-15.62-18.14-16.37-9.71-.76-18.29,4.29-20.78,13.51-1.43,5.31-1.68,11.21-1.15,16.71.94,9.65,8.61,16.35,18.03,16.93,10.96.68,18.41-4.08,21.35-13.99.89-2.99,1.06-6.2,1.5-8.96Z"/>
  <path class="cls-1" d="m993.67,160.33c-.04-23.52,16.91-40.22,40.84-40.23,22.75-.01,40.36,17.05,40.59,39.32.24,23.3-17.45,41.19-40.89,41.35-23.75.16-40.5-16.54-40.53-40.43Zm61.24-.21c-.34-8.21-2.38-15.76-10.15-20.32-9.58-5.62-22.37-2.8-27.89,5.96-6.75,10.71-4.12,27.95,5.32,34.34,6.78,4.58,14,5.08,21.24,1.35,8.54-4.4,11.21-12.21,11.48-21.33Z"/>
  <path class="cls-1" d="m649.49,153.77c.91-14.99-8.24-22.22-21.12-17.41-2.34.87-5.37,2.7-6.03,4.75-1.67,5.17-5.18,5.13-9.3,4.95-3.47-.15-6.95-.03-10.42-.03.07-10.72,7.08-20,18.47-23.9,11.13-3.82,22.27-3.54,32.92,1.97,8.95,4.63,13.7,12.6,14.08,22.15.67,16.96.17,33.97.13,50.95,0,.46-.26.93-.59,2.08-4.79,0-9.82.57-14.6-.3-1.74-.32-2.86-4.05-4.36-6.39-7.63,8.3-17.97,9.73-29.12,7.7-11.76-2.14-18.75-10.56-18.81-22.27-.06-11.99,6.89-20.8,18.72-22.89,5.54-.98,11.25-1.06,16.89-1.32,4.29-.2,8.6-.04,13.14-.04Zm-.49,12.34c-7.38,0-14.51-.29-21.6.1-4.64.26-7.7,4.06-8.12,8.71-.48,5.27,1.63,8.91,6.59,10.29,11.54,3.22,25.73-2.74,23.13-19.1Z"/>
  <path class="cls-1" d="m1103.1,121.9c.14,2.95.25,5.23.39,8.22,7.5-8.61,16.77-11.02,27.2-10.19,13.72,1.09,23.6,9.6,24.23,23.27.85,18.41.21,36.89.21,56.04-5.44,0-11.05.21-16.62-.21-.89-.07-2.23-2.91-2.25-4.48-.19-12.32-.1-24.64-.12-36.96,0-2.5,0-5-.19-7.49-.58-7.49-4.43-11.97-10.89-12.83-8.82-1.17-16.19,2.36-18.43,9.25-.96,2.95-1.38,6.19-1.42,9.3-.16,12.82-.21,25.64,0,38.46.06,3.98-1.26,5.38-5.18,5.09-3.64-.27-7.33-.19-10.98-.03-3.07.13-4.06-1.2-4.06-4.15.06-23.14-.03-46.28.15-69.42.01-1.3,1.87-3.6,3.02-3.7,4.77-.42,9.59-.18,14.94-.18Z"/>
  <path class="cls-1" d="m792.9,121.88c-4.82,11.84-9.15,22.61-13.57,33.34-9.63,23.38-19.36,46.71-28.88,70.13-1.27,3.12-2.82,4.43-6.22,4.21-4.45-.29-8.93-.07-14.36-.07,2.16-5.65,3.4-10.89,6.02-15.32,6.07-10.27,5.1-19.62.09-30.29-9.04-19.25-16.59-39.2-24.74-58.87-.31-.74-.46-1.54-.9-3.07,6.69,0,12.94-.2,19.16.18,1.15.07,2.58,2.29,3.18,3.79,5.66,14.39,11.15,28.85,16.72,43.27.58,1.49,1.28,2.93,2.41,5.5,4.06-10.46,7.72-19.84,11.34-29.23,2.57-6.68,5.19-13.34,7.6-20.07.92-2.56,2.24-3.68,5.08-3.56,5.29.22,10.6.06,17.09.06Z"/>
  <path class="cls-1" d="m948.97,142.08c-5.06.42-9.84,1.04-14.63,1.09-1.43.02-3.3-1.19-4.24-2.4-4.14-5.32-13.39-7.92-19.24-4.46-2.04,1.21-4.26,4.38-4.09,6.46.2,2.39,2.5,5.71,4.7,6.61,5.16,2.11,10.82,3.03,16.28,4.41,1.61.41,3.26.66,4.86,1.1,8.53,2.31,15.53,6.54,17.19,15.98,1.75,9.91-1.87,18.07-9.82,24.07-12.15,9.18-36.78,7.62-47.32-3.31-3.28-3.39-5.13-8.16-8.15-13.15,5.21-.62,8.79-1.18,12.38-1.45,4.09-.31,7.67-.59,10.47,4.17,3.04,5.15,17.08,5.67,21.69,1.73,4.48-3.83,3.38-10.2-2.51-12.26-5.14-1.8-10.58-2.77-15.88-4.13-2.57-.66-5.18-1.23-7.69-2.09-6.98-2.38-12.75-6.38-14.03-14.1-1.52-9.12.01-17.66,7.67-24,12.18-10.09,43.21-10.47,51.72,13.08.27.74.37,1.54.62,2.64Z"/>
  <path class="cls-1" d="m743.36,292.3c-.05,20.66-14.29,34.77-34.97,34.65-21.38-.13-35.71-14.33-35.47-35.32.22-18.78,13.26-34.33,35.16-34.27,24.31.06,35.87,17.51,35.27,34.94Zm-53.24-.68c-.04,7.59,1.56,14.02,8.2,18.01,8.94,5.36,20.25,2.51,25.1-6.23,5.48-9.86,2.21-24.25-6.49-29.22-10.84-6.19-27.78.28-26.82,17.44Z"/>
  <path class="cls-1" d="m818.98,279.3c1.3-10.17,6.77-16.07,14.86-19.46,9.38-3.94,19.2-4.16,28.75-.59,8.98,3.36,13.98,10.55,14.42,19.85.65,13.63.25,27.3.29,40.96,0,1.64,0,3.28,0,5.76-4.67,0-9.01.46-13.15-.23-1.62-.27-2.8-3.15-4.46-5.19-6.99,7.04-16.35,7.74-26.21,5.98-9.91-1.77-15.82-8.59-16.29-18.61-.44-9.24,5.3-17.37,14.51-19.61,5.12-1.24,10.46-1.72,15.73-2.13,4.27-.34,8.59-.07,12.77-.07,1.24-6.91-.98-12.58-5.43-14.64-5.69-2.63-14.77-1.47-17.28,3.39-2.54,4.92-6.11,4.78-10.31,4.62-2.46-.09-4.93-.02-8.2-.02Zm41.42,16.87c-6.86.37-13.47.46-20.02,1.16-4.88.53-6.26,4.12-6.25,8.69,0,4.73,2.5,6.98,6.74,7.88,11.75,2.49,19.99-4.45,19.52-17.73Z"/>
  <path class="cls-1" d="m1039.26,292.38c-.09,20.24-14.95,34.86-35.25,34.67-21.06-.19-34.97-14.42-35.05-35.28-.07-17.86,12.47-34.61,34.89-34.54,25.01.08,35.99,19.15,35.41,35.15Zm-17.36-.09c-.05-7.15-2.18-12.53-6.39-16.13-7.98-6.81-19.8-5.52-25.92,2.83-6.66,9.1-4.46,25.01,4.32,30.39,6.14,3.77,12.61,4.06,18.93.55,6.87-3.81,8.99-10.25,9.06-17.64Z"/>
  <path class="cls-1" d="m1064.85,258.73c.29,2.35.48,3.98.62,5.13,4.59-2.04,9.09-4.99,14-6.03,15.96-3.4,30.44,3.55,30.75,22.69.23,13.82.06,27.64.17,41.46.02,2.73-.96,3.75-3.73,3.96-12.68.97-12.68,1.04-12.69-11.57,0-9.49.1-18.99-.05-28.48-.14-9.09-4.62-14.03-12.51-14.22-8.05-.19-14.54,5.28-14.91,13.67-.51,11.63-.47,23.31-.24,34.96.09,4.46-1.4,5.8-5.7,5.68-13.31-.37-11.16,1.6-11.25-10.96-.12-17.15.05-34.3-.1-51.46-.03-3.59.83-5.23,4.72-4.9,3.59.31,7.22.06,10.89.06Z"/>
  <path class="cls-1" d="m617.58,265.72c7.97-8.28,17.34-10.27,28.02-7.78,9.59,2.23,15.73,8.29,16.36,17.78,1.04,15.59,1.56,31.33.63,46.9-.42,6.97-7.95,2-12.07,3.19-2.89.83-4.45-.8-4.43-4.17.1-12.33.21-24.66-.17-36.98-.32-10.71-10.38-16.19-19.93-11.2-6.68,3.49-7.36,10-7.59,16.31-.37,9.98-.1,19.99-.1,29.99,0,1.79,0,3.59,0,6.06-4.99,0-9.46.19-13.88-.15-.94-.07-2.47-2.1-2.48-3.24-.15-20.98-.11-41.96-.11-63.32h15.14c.17,1.94.37,4.12.59,6.61Z"/>
  <path class="cls-1" d="m588.21,325.78c-5.11,0-9.75.26-14.3-.21-.98-.1-2.37-2.81-2.41-4.35-.21-9.49-.07-18.99-.1-28.48,0-2.99-.07-6-.32-8.98-.65-7.65-4.2-11.27-11.46-11.89-6.74-.58-12.73,3.4-14.27,9.85-.72,3.04-1.03,6.24-1.06,9.37-.12,11.3-.05,22.6-.05,34.34h-16.38v-66.41h14.76c.27,1.89.52,3.63.83,5.76,7.85-6.85,16.64-9.37,26.79-6.91,10.1,2.45,16.02,8.06,16.88,18.35.91,10.92.81,21.92,1.06,32.89.12,5.3.02,10.61.02,16.66Z"/>
  <path class="cls-1" d="m1117.38,306.88c6.49,0,11.41-.05,16.33.06.64.01,1.44.77,1.86,1.39,4.45,6.59,11.01,6.41,17.42,4.72,2.25-.6,5.18-3.86,5.25-5.99.07-2.09-2.7-5.37-4.94-6.22-5.55-2.1-11.55-2.98-17.3-4.58-9.9-2.76-15-8.75-15.09-17.39-.09-9.44,6.11-17.71,15.37-20.35,10.53-3.01,20.63-2.08,29.19,5.04,3.47,2.89,5.55,7.44,7.71,11.85-6.73.26-13.27,3.89-18.58-2.91-2.55-3.26-11.51-3.19-15.1-.82-4.1,2.7-4.15,7.72.25,10.11,2.56,1.39,5.63,1.86,8.51,2.64,4.32,1.17,8.64,2.39,13.01,3.33,16.16,3.49,15.87,22.8,6.91,31.87-5.57,5.64-12.64,7.28-20.08,7.36-10.04.11-19.82-1.15-26.15-10.39-1.69-2.47-2.6-5.46-4.56-9.71Z"/>
  <path class="cls-1" d="m814.31,258.73c-3.34,9.02-6.29,17.1-9.33,25.15-4.81,12.75-9.76,25.45-14.46,38.24-1.04,2.82-2.56,4.06-5.49,3.81-1.32-.12-2.66,0-3.99-.01q-11.63-.14-15.64-10.88c-6.49-17.27-13.02-34.53-19.51-51.8-.46-1.21-.77-2.48-1.38-4.5,5.4,0,10.35-.29,15.22.19,1.31.13,2.88,2.4,3.48,4,4.53,11.98,8.84,24.04,13.24,36.06.78,2.12,1.67,4.2,3.02,7.58,5.2-13.91,9.98-26.46,14.58-39.08,3.18-8.73,3.08-8.77,12.32-8.77,2.3,0,4.61,0,7.95,0Z"/>
  <path class="cls-1" d="m682.65,199.32c-.12-2.59-.28-4.4-.28-6.2-.02-32.49.1-64.97-.13-97.46-.04-5.16,1.55-6.51,6.51-6.41,12.59.25,12.59.04,12.59,12.72,0,30.65-.06,61.31.08,91.96.02,3.99-.9,5.8-5.23,5.46-4.28-.34-8.62-.07-13.53-.07Z"/>
  <path class="cls-1" d="m884.59,272.14v-13.14c1.82-.09,3.78-.46,5.66-.21,4.98.64,6.18-1.55,6.03-6.24-.33-10.16-.1-10.18,10.01-12.47,2.08-.47,4.18-.84,6.9-1.39v19.84h17.2v13.69h-17.08c0,4.65,0,8.89,0,13.14,0,4.83-.03,9.66,0,14.49.06,9.45,4.12,13.07,13.4,11.95.97-.12,1.92-.41,4.09-.9,0,4.28.29,8.2-.17,12.03-.15,1.22-2.23,3.07-3.51,3.13-5.28.27-10.71.67-15.85-.26-10.05-1.82-15.03-9.37-15.25-22.1-.17-10.15-.04-20.3-.04-31.05-3.88-.18-7.43-.34-11.4-.52Z"/>
  <path class="cls-1" d="m512.81,325.77c-4.93,0-9.39.03-13.85,0-3.72-.03-2.98-2.84-2.99-5.05-.03-24.47-.02-48.94-.02-73.41,0-4.48,0-8.95,0-13.92h16.85v92.38Z"/>
  <path class="cls-1" d="m981.43,122.28c.11,1.99.3,3.93.31,5.88.02,21.81-.11,43.62.09,65.43.04,4.54-1.24,6.23-5.88,5.81-4.42-.4-8.91-.09-13.73-.09v-77.04h19.22Z"/>
  <path class="cls-1" d="m942.13,325.87v-66.88h15.91c.14.82.44,1.74.44,2.66.02,19.66-.11,39.32.08,58.98.04,4.24-1.34,5.62-5.42,5.3-3.58-.29-7.21-.06-11.01-.06Z"/>
  <path class="cls-1" d="m972.24,88.8c7.07.12,11.28,4.34,11.13,11.14-.14,6.39-5.08,11.02-11.71,10.99-6.62-.03-12.07-5.32-11.86-11.51.22-6.46,5.24-10.74,12.45-10.62Z"/>
  <path class="cls-1" d="m950.25,229.25c5.85-.05,10.51,4.12,10.62,9.5.12,5.48-4.72,10.08-10.67,10.14-5.76.06-10.43-4.37-10.34-9.82.08-5.51,4.6-9.78,10.39-9.82Z"/>
</svg>